<?xml version="1.0" standalone="no"?>
<svg t="1723907696831" viewBox="0 0 1024 1024" version="1.1" xmlns="http://www.w3.org/2000/svg" p-id="1804" xmlns:xlink="http://www.w3.org/1999/xlink" >
<path d="M326.4 640H524.8v17.066667H326.4zM326.4 396.8h341.333333v17.066667h-341.333333zM326.4 516.266667h341.333333v17.066666h-341.333333zM328.533333 232.533333h6.4V238.933333H328.533333zM643.84 268.8l-49.066667 6.4L546.133333 281.6h-98.133333l48.64-6.4 49.066667-6.4zM674.986667 264.533333c-0.426667 0.426667-0.853333 1.28-1.28 1.706667-1.28 1.28-3.413333 2.133333-5.12 2.56h-24.746667l31.146667-4.266667zM740.266667 435.626667V482.133333l6.4 46.08v-46.506666l-6.4-46.08zM682.666667 232.533333V247.466667h6.4v-14.933334H682.666667z m70.4 523.093334c0 0.853333-0.426667 1.28-0.426667 1.706666h0.853333v-2.986666c-0.426667 0.853333-0.426667 0.853333-0.426666 1.28z m-18.773334 2.133333l-0.853333 0.853333 0.853333-0.853333 0.853334-0.853333-0.853334 0.853333zM635.733333 859.733333z m-49.92-6.4h43.52v-5.546666l-43.52 5.546666z m-290.56 6.4L294.4 853.333333h-12.8l1.706667 12.8h12.8l-0.853334-6.4z m26.88-618.666666V247.466667H328.533333v-6.4h-6.4zM247.466667 308.053333v6.4l6.4-0.853333V307.2l-6.4 0.853333z m-12.8 8.106667v6.4l6.4-0.853333v-6.4l-6.4 0.853333z"  p-id="1805"></path><path d="M682.666667 226.133333v12.8h6.4v-12.8H682.666667zM234.666667 316.16v6.4l6.4-0.853333v-6.4l-6.4 0.853333zM334.933333 226.133333H328.533333v12.8h6.4v-12.8z" p-id="1806"></path><path d="M326.4 640H524.8v17.066667H326.4zM326.4 396.8h341.333333v17.066667h-341.333333zM326.4 516.266667h341.333333v17.066666h-341.333333zM334.933333 226.133333v12.8H328.533333v-29.866666h6.4zM643.84 268.8l-49.066667 6.4L546.133333 281.6h-98.133333l48.64-6.4 49.066667-6.4zM674.986667 264.533333c-0.426667 0.426667-0.853333 1.28-1.28 1.706667-1.28 1.28-3.413333 2.133333-5.12 2.56h-24.746667l31.146667-4.266667zM740.266667 435.626667V482.133333l6.4 46.08v-46.506666l-6.4-46.08zM682.666667 226.133333v21.333334h6.4v-21.333334H682.666667z m70.4 529.493334c0 0.853333-0.426667 1.28-0.426667 1.706666h0.853333v-2.986666c-0.426667 0.853333-0.426667 0.853333-0.426666 1.28z m-18.773334 2.133333l-0.853333 0.853333 0.853333-0.853333 0.853334-0.853333-0.853334 0.853333zM635.733333 859.733333z m-49.92-6.4h43.52v-5.546666l-43.52 5.546666z m-290.56 6.4L294.4 853.333333h-12.8l1.706667 12.8h12.8l-0.853334-6.4z m26.88-618.666666V247.466667H328.533333v-6.4h-6.4zM247.466667 308.053333v6.4l6.4-0.853333V307.2l-6.4 0.853333z m-12.8 8.106667v6.4l6.4-0.853333v-6.4l-6.4 0.853333z" p-id="1807"></path><path d="M326.4 640H524.8v17.066667H326.4zM326.4 396.8h341.333333v17.066667h-341.333333zM326.4 516.266667h341.333333v17.066666h-341.333333zM234.666667 316.16v6.4l6.4-0.853333v-6.4l-6.4 0.853333zM594.773333 268.8h49.066667l-49.066667 6.4L546.133333 281.6h-48.64l48.64-6.4zM674.986667 264.533333c-0.426667 0.426667-0.853333 1.28-1.28 1.706667-1.28 1.28-3.413333 2.133333-5.12 2.56h-24.746667l31.146667-4.266667zM753.066667 755.626667c0 0.853333-0.426667 1.28-0.426667 1.706666h0.853333v-2.986666c-0.426667 0.853333-0.426667 0.853333-0.426666 1.28z m-18.773334 2.133333l-0.853333 0.853333 0.853333-0.853333 0.853334-0.853333-0.853334 0.853333zM585.813333 853.333333h43.52v-5.546666l-43.52 5.546666z m-290.56 6.4L294.4 853.333333h-6.4l0.853333 6.4 0.853334 6.4h6.4l-0.853334-6.4z"  p-id="1808"></path><path d="M585.813333 853.333333h43.52v-5.546666l-43.52 5.546666z m154.453334-417.706666V482.133333l6.4 46.08v-46.506666l-6.4-46.08zM295.253333 859.733333L294.4 853.333333h-12.8l1.706667 12.8h12.8l-0.853334-6.4zM234.666667 316.16v6.4l6.4-0.853333v-6.4l-6.4 0.853333z m12.8-8.106667v6.4l6.4-0.853333V307.2l-6.4 0.853333z m298.24-39.253333l-48.64 6.4L448 281.6h98.133333l48.64-6.4 49.066667-6.4h-98.133333z" p-id="1809"></path><path d="M326.4 640H524.8v17.066667H326.4zM326.4 396.8h341.333333v17.066667h-341.333333zM326.4 516.266667h341.333333v17.066666h-341.333333zM643.84 268.8l-49.066667 6.4L546.133333 281.6h-98.133333l48.64-6.4 49.066667-6.4zM674.986667 264.533333c-0.426667 0.426667-0.853333 1.28-1.28 1.706667-1.28 1.28-3.413333 2.133333-5.12 2.56h-24.746667l31.146667-4.266667zM635.733333 859.733333zM253.866667 307.2v6.4l-6.4 0.853333v-6.4zM322.133333 241.066667H328.533333V247.466667h-6.4zM295.253333 859.733333h-12.8L281.6 853.333333h12.8zM629.333333 847.786667v5.546666h-43.52zM682.666667 241.066667h6.4V247.466667H682.666667zM746.666667 481.706667v46.506666l-6.4-46.08v-46.506666z"  p-id="1810"></path><path d="M247.466667 308.053333v6.4l6.4-0.853333V307.2l-6.4 0.853333z m74.666666-66.986666V247.466667H328.533333v-6.4h-6.4z m-26.88 618.666666L294.4 853.333333h-12.8l1.706667 12.8h12.8l-0.853334-6.4z m340.48 0z m117.333334-104.106666c0 0.853333-0.426667 1.28-0.426667 1.706666h0.853333v-2.986666c-0.426667 0.853333-0.426667 0.853333-0.426666 1.28z m-18.773334 2.133333l0.853334-0.853333-0.853334 0.853333zM682.666667 234.666667v12.8h6.4v-12.8H682.666667z m57.6 200.96V482.133333l6.4 46.08v-46.506666l-6.4-46.08zM328.533333 234.666667v4.266666h6.4v-4.266666H328.533333z" p-id="1811"></path><path d="M326.4 396.8v17.066667h341.333333v-17.066667h-341.333333z m0 119.466667v17.066666h341.333333v-17.066666h-341.333333z m0 123.733333v17.066667H524.8v-17.066667H326.4zM334.933333 226.133333v-17.066666H328.533333v29.866666h6.4v-12.8z m210.773334 42.666667l-48.64 6.4h98.133333L644.266667 268.8h-98.56z m98.133333 0h24.746667c1.706667 0 3.84-0.853333 5.12-2.56 0.426667-0.426667 0.853333-0.853333 1.28-1.706667l-31.146667 4.266667z" p-id="1812"></path><path d="M676.266667 209.066667v-17.92c0-4.266667-2.133333-8.106667-5.12-11.093334l-0.853334-0.853333c-2.986667-2.56-7.253333-4.266667-11.52-4.266667h-68.266666l-0.426667-8.106666c-0.853333-21.333333-9.813333-41.386667-24.746667-56.746667-16.213333-16.213333-37.546667-25.173333-60.16-25.173333S460.8 93.866667 445.013333 110.08l-1.28 1.28c-14.506667 14.933333-23.04 34.56-23.466666 55.466667V174.933333H351.146667c-4.266667 0-8.106667 2.133333-11.093334 5.12-3.413333 3.413333-5.12 7.68-5.12 11.946667v69.12c0 1.706667 0.853333 3.84 2.56 5.12 1.706667 1.706667 3.84 2.56 5.973334 2.56h300.373333l31.146667-4.266667c0.853333-1.28 1.28-2.986667 1.28-4.266666V209.066667z m-152.746667-20.48c-4.693333 4.693333-11.093333 7.68-17.92 7.68s-13.226667-2.56-17.92-7.68c-4.693333-4.693333-7.68-11.093333-7.68-17.92s2.56-13.226667 7.68-17.92c4.693333-4.693333 11.093333-7.68 17.92-7.68s13.226667 2.56 17.92 7.68c4.693333 4.693333 7.68 11.093333 7.68 17.92s-2.56 13.226667-7.68 17.92z" p-id="1813"></path><path d="M682.666667 226.133333v21.333334h6.4v-21.333334H682.666667z m-360.533334 14.933334V247.466667H328.533333v-6.4h-6.4z m12.8-14.933334v-17.066666H328.533333v29.866666h6.4v-12.8z m210.773334 42.666667l-48.64 6.4L448 281.6h98.133333l48.64-6.4 49.066667-6.4h-98.133333z" p-id="1814"></path><path d="M735.146667 756.48l-0.853334 1.28-1.28 0.853333 1.28-0.853333 0.853334-1.28z" p-id="1815"></path><path d="M635.733333 859.733333zM820.053333 235.946667c-6.4-6.4-14.933333-9.813333-24.32-9.813334h-4.693333c-5.973333-10.24-17.066667-17.066667-29.44-17.066666h-72.533333v38.4h46.933333c1.28 0 2.133333 0.426667 2.986667 1.28s1.28 1.706667 1.28 2.986666v183.893334l6.4 46.08v46.506666l-6.4-46.08v262.4h-81.066667c-8.106667 0-15.36 2.986667-21.333333 8.533334s-8.533333 13.226667-8.533334 21.333333V853.333333H294.4l0.853333 6.4 0.853334 6.4h192.853333l-185.173333 24.32c-1.28 0-2.133333 0-2.986667-0.853333-0.853333-0.853333-1.28-1.706667-1.706667-2.986667l-2.986666-20.48h-12.8l-1.706667-12.8h-23.466667c-1.28 0-2.133333-0.426667-2.986666-1.28s-1.28-1.706667-1.28-2.986666V313.6l-6.4 0.853333v-6.4l6.4-0.853333V251.733333c0-1.28 0.426667-2.133333 1.28-2.986666s1.706667-1.28 2.986666-1.28h64v-38.4h-93.866666c-18.773333 0-34.133333 15.36-34.133334 34.133333v640c0 18.773333 15.36 34.133333 34.133334 34.133333 0 8.96 3.413333 17.92 9.813333 24.32 6.4 6.4 14.933333 9.813333 24.32 9.813334h533.333333c8.96 0 17.92-3.413333 24.32-9.813334 6.4-6.4 9.813333-14.933333 9.813334-24.32V260.266667c0-8.96-3.413333-17.92-9.813334-24.32z m-66.986666 384.426666l28.16 202.666667c0 1.28 0 2.133333-0.853334 2.986667-0.853333 0.853333-1.706667 1.28-2.56 1.706666l-108.8 14.506667L750.933333 759.466667c0.426667-0.426667 0.853333-1.28 1.28-1.706667 0.426667-0.426667 0.426667-1.28 0.426667-1.706667v-135.68z m-110.933334 154.453334c0-4.693333 1.706667-8.96 5.12-11.946667 3.413333-3.413333 7.68-5.12 11.946667-5.12H733.866667l0.853333-0.853333-0.853333 0.853333-0.853334 0.853333-0.426666 0.426667-85.76 86.186667-2.133334 0.426666-2.986666 0.426667v-71.253333z m-6.4 84.906666zM228.266667 378.453333L221.44 328.533333c0-1.28 0-2.133333 0.853333-2.986666 0.853333-0.853333 1.706667-1.28 2.56-1.706667l3.413334-0.426667 6.4-0.853333v-6.4l6.4-0.853333v154.88l-12.8-91.733334z m588.8 538.88c0 5.546667-2.133333 11.093333-6.4 14.933334-3.84 3.84-9.386667 6.4-14.933334 6.4h-533.333333c-5.546667 0-11.093333-2.133333-14.933333-6.4-3.84-3.84-6.4-9.386667-6.4-14.933334h520.533333c18.773333 0 34.133333-15.36 34.133333-34.133333V243.2c0-1.28 0-2.986667-0.426666-4.266667h0.426666c5.546667 0 11.093333 2.133333 14.933334 6.4 3.84 3.84 6.4 9.386667 6.4 14.933334v657.066666z" p-id="1816"></path></svg>