<?xml version="1.0" standalone="no"?>
<svg t="1723720042871" viewBox="0 0 1024 1024" version="1.1" xmlns="http://www.w3.org/2000/svg" p-id="7731" xmlns:xlink="http://www.w3.org/1999/xlink"><path d="M426.666667 213.333333a42.666667 42.666667 0 1 0 42.666666 42.666667 42.666667 42.666667 0 0 0-42.666666-42.666667zM256 213.333333a42.666667 42.666667 0 1 0 42.666667 42.666667 42.666667 42.666667 0 0 0-42.666667-42.666667z m341.333333 0a42.666667 42.666667 0 1 0 42.666667 42.666667 42.666667 42.666667 0 0 0-42.666667-42.666667z m256-170.666666H170.666667a128 128 0 0 0-128 128v682.666666a128 128 0 0 0 128 128h682.666666a128 128 0 0 0 128-128V170.666667a128 128 0 0 0-128-128z m42.666667 810.666666a42.666667 42.666667 0 0 1-42.666667 42.666667H170.666667a42.666667 42.666667 0 0 1-42.666667-42.666667v-384h768z m0-469.333333H128V170.666667a42.666667 42.666667 0 0 1 42.666667-42.666667h682.666666a42.666667 42.666667 0 0 1 42.666667 42.666667z" p-id="7732"></path>
</svg>